<?xml version="1.0" standalone="no"?>
<!DOCTYPE svg PUBLIC "-//W3C//DTD SVG 20010904//EN"
 "http://www.w3.org/TR/2001/REC-SVG-20010904/DTD/svg10.dtd">
<svg version="1.0" xmlns="http://www.w3.org/2000/svg"
 width="840.000000pt" height="859.000000pt" viewBox="0 0 840.000000 859.000000"
 preserveAspectRatio="xMidYMid meet">

<g transform="translate(0.000000,859.000000) scale(0.100000,-0.100000)"
fill="#000000" stroke="none">
<path d="M2574 7277 c-54 -40 -88 -74 -197 -195 -36 -40 -40 -42 -97 -42 -55
0 -62 -3 -117 -47 -90 -74 -114 -89 -256 -162 -169 -87 -282 -132 -437 -176
-206 -59 -221 -70 -399 -290 -112 -138 -258 -293 -483 -515 -161 -158 -180
-185 -192 -270 -4 -25 -11 -56 -16 -70 -62 -178 -83 -238 -91 -255 -4 -11 -18
-47 -29 -80 -67 -192 -109 -331 -135 -450 -9 -38 -20 -86 -25 -105 -39 -147
-60 -322 -60 -495 0 -165 15 -252 52 -310 33 -50 54 -46 60 13 3 26 25 88 48
137 87 186 117 251 131 283 8 17 17 32 21 32 5 0 8 5 8 11 0 16 103 169 141
210 19 19 63 55 99 80 77 52 69 47 235 134 72 37 134 72 139 76 6 5 16 9 22 9
7 0 45 15 86 33 40 19 98 42 128 52 30 10 66 22 80 27 57 22 194 37 237 26 47
-11 117 -72 156 -136 49 -77 192 -350 217 -412 8 -19 25 -54 38 -78 l24 -43
32 37 33 38 77 -17 c42 -9 96 -17 119 -17 23 0 47 -4 54 -8 11 -7 63 -152 63
-176 0 -6 -38 -52 -85 -103 -51 -55 -87 -103 -91 -120 -10 -49 13 -108 56
-150 33 -31 46 -37 75 -34 36 3 45 -8 22 -28 -10 -8 -17 -7 -27 2 -8 6 -6 2 4
-10 15 -18 22 -20 38 -12 11 6 21 9 23 7 5 -5 -46 -106 -83 -163 -18 -27 -36
-64 -41 -83 -9 -29 -6 -39 22 -78 17 -24 34 -44 38 -44 3 0 12 14 19 31 18 44
26 25 45 -116 22 -160 23 -165 38 -165 30 -1 68 -52 88 -117 12 -38 30 -82 40
-100 l20 -32 -26 -17 c-52 -34 -175 10 -175 63 0 20 -4 24 -17 18 -10 -4 -40
-16 -68 -27 -27 -11 -51 -21 -53 -22 -1 -2 5 -17 14 -35 33 -67 4 -202 -58
-269 l-22 -22 22 -30 c27 -36 27 -37 2 -91 -11 -24 -20 -56 -20 -71 0 -28 -4
-30 -102 -52 l-27 -6 16 -38 c27 -64 84 -174 88 -170 3 2 13 31 23 64 l19 59
8 -49 c6 -36 3 -63 -10 -105 -20 -66 -31 -81 -56 -81 -12 0 -19 -7 -19 -20 0
-11 -4 -20 -10 -20 -5 0 -10 6 -10 14 0 11 -19 15 -80 18 -68 3 -79 1 -74 -12
3 -8 8 -21 11 -28 3 -7 -3 -12 -16 -12 -17 0 -21 6 -21 30 0 26 -7 33 -50 55
-27 14 -51 25 -54 25 -3 0 0 -15 5 -32 5 -18 9 -35 9 -38 -1 -14 -32 53 -52
110 -19 59 -21 86 -22 291 -1 209 -3 227 -20 245 -19 19 -20 19 -14 -3 4 -14
-6 -53 -25 -100 -28 -72 -31 -88 -31 -198 -1 -92 3 -133 18 -175 54 -160 137
-282 245 -360 67 -49 121 -62 121 -30 0 16 4 16 54 5 30 -7 56 -12 58 -10 2 1
22 5 46 9 39 6 42 5 42 -18 0 -13 7 -26 18 -30 9 -3 35 -17 57 -31 22 -14 50
-25 63 -25 25 0 27 -6 8 -40 -40 -71 78 -121 163 -69 29 18 33 24 29 56 -5 40
-4 41 103 66 36 9 82 24 103 32 l38 16 -24 18 c-13 9 -49 33 -80 53 l-58 35
25 23 c13 12 31 20 39 17 22 -8 74 -82 106 -150 l28 -58 -21 -38 c-18 -32 -19
-43 -10 -63 9 -20 21 -27 62 -32 52 -7 97 -1 119 17 30 24 1 107 -39 107 -29
0 -23 13 29 61 81 76 112 98 127 93 11 -5 15 1 15 19 0 14 16 49 36 78 20 30
43 72 50 94 19 52 22 121 5 137 -10 11 -11 6 -6 -25 l7 -38 -48 30 c-26 17
-59 31 -72 31 -29 0 -64 18 -57 30 3 5 -4 8 -15 7 -20 -1 -29 -17 -10 -17 6 0
10 -4 10 -10 0 -16 -27 -11 -34 6 -11 29 -6 53 17 77 36 40 137 74 137 47 0
-12 77 -90 89 -90 12 0 -6 89 -23 114 -22 33 -56 66 -67 66 -12 0 -2 89 12
106 14 17 116 43 219 54 54 6 108 18 125 28 16 10 58 56 93 102 35 47 81 106
103 132 59 70 207 178 245 178 20 0 18 -45 -6 -124 -26 -84 -63 -122 -175
-177 -68 -34 -82 -44 -70 -53 22 -16 53 -114 61 -190 4 -37 11 -69 16 -72 5
-3 7 5 4 18 -3 12 -10 56 -16 97 -10 70 -9 76 10 95 15 15 23 17 31 9 9 -9 66
43 226 205 l215 217 14 -33 14 -33 46 27 c25 14 47 25 49 22 2 -2 -16 -24 -39
-48 l-43 -45 31 -140 c17 -77 32 -132 34 -122 2 10 9 16 15 14 14 -4 21 -60
12 -96 -6 -23 -8 -24 -19 -9 -12 16 -21 13 -112 -28 -54 -25 -152 -68 -217
-96 -65 -28 -116 -56 -114 -62 2 -6 13 -15 25 -21 12 -5 20 -15 18 -22 -3 -7
-1 -15 5 -18 6 -4 9 7 7 29 -1 19 0 37 2 39 11 10 160 15 160 6 0 -6 8 -5 20
1 11 6 55 22 98 37 88 29 105 40 99 63 -2 9 4 22 14 28 27 17 32 15 26 -9 -3
-12 -2 -29 3 -38 5 -9 14 -57 20 -108 10 -91 10 -92 -20 -158 -17 -36 -28 -71
-24 -76 3 -6 22 -8 44 -4 37 6 40 5 65 -34 37 -60 45 -56 60 31 6 40 42 68 85
68 12 0 35 7 52 16 l31 16 -7 -29 c-8 -33 -18 -246 -10 -221 3 10 9 18 14 18
5 0 28 15 53 34 37 28 46 31 61 20 10 -7 40 -15 67 -19 49 -7 49 -7 49 -43 0
-47 -11 -64 -30 -52 -8 6 -25 10 -37 10 -12 0 -24 6 -26 13 -3 6 -6 -8 -6 -33
-1 -50 -14 -70 -46 -70 -29 0 -45 19 -45 52 0 24 -4 28 -27 28 -42 0 -50 -10
-57 -70 -4 -30 -10 -71 -13 -91 -4 -31 -1 -39 22 -57 l27 -22 -47 -20 c-26
-11 -81 -24 -123 -29 -100 -11 -156 -38 -242 -118 -82 -76 -90 -98 -30 -88 21
4 45 3 52 -2 31 -19 173 -11 292 18 65 15 121 31 125 34 3 4 -6 4 -22 1 -79
-17 -73 -19 -92 29 -19 51 -38 57 -78 25 l-25 -20 -25 29 c-24 30 -25 30 -45
10 -26 -24 -34 -24 -57 1 -18 19 -17 20 29 41 26 11 87 24 138 30 51 5 99 15
107 23 24 20 127 76 140 76 7 0 11 -21 11 -54 0 -43 -5 -61 -24 -83 -24 -29
-60 -93 -52 -93 2 0 15 17 27 38 13 20 38 50 57 67 38 33 182 121 215 131 12
4 32 14 43 23 12 10 41 23 65 30 24 8 58 19 74 27 48 20 137 51 169 59 44 10
84 42 106 85 10 20 26 40 35 43 8 4 15 13 15 22 0 19 24 19 40 0 7 -8 9 -15 5
-15 -4 0 4 -13 17 -28 26 -31 55 -175 43 -212 -5 -14 -2 -20 10 -20 32 0 72
30 115 84 23 31 46 56 50 56 4 0 33 -9 65 -20 32 -11 74 -20 94 -20 79 0 77
-42 -2 -55 -77 -13 -155 -55 -234 -129 -42 -38 -43 -58 -3 -49 23 4 30 2 30
-11 0 -18 9 -19 63 -7 21 5 37 5 37 0 0 -5 10 -9 23 -9 35 0 206 46 223 60 22
19 30 2 13 -28 -14 -25 -20 -27 -105 -33 -105 -6 -178 -35 -255 -100 -60 -50
-65 -79 -14 -74 26 2 35 -1 35 -12 0 -13 9 -15 54 -9 30 3 61 9 70 12 11 4 16
1 16 -11 0 -22 23 -18 178 31 107 34 115 38 151 84 30 38 41 63 50 117 30 171
42 215 62 220 16 5 19 15 19 74 0 37 5 71 10 74 6 3 10 20 10 37 0 17 11 63
24 102 30 87 76 261 76 286 0 10 6 23 14 29 14 12 15 48 2 108 -6 27 -3 34 27
57 19 14 38 26 44 26 5 0 24 -22 41 -48 17 -26 57 -73 89 -103 l58 -56 -12
-39 c-6 -21 -12 -51 -12 -66 -1 -35 -7 -35 -57 5 -102 81 -128 100 -109 78 19
-21 247 -196 308 -236 15 -10 31 -14 35 -10 4 3 6 34 5 67 l-3 60 43 -6 42 -5
-48 15 c-42 13 -68 36 -56 49 6 6 109 -31 122 -44 9 -9 8 -14 -3 -21 -13 -8
-12 -10 3 -10 10 0 44 -19 77 -41 44 -32 62 -52 73 -83 31 -87 40 -140 41
-257 1 -99 -2 -123 -14 -130 -8 -4 -40 -19 -71 -32 -36 -16 -79 -47 -118 -86
-84 -84 -81 -103 12 -82 32 8 38 7 36 -7 -1 -10 -1 -20 0 -24 1 -6 61 9 105
27 16 7 17 6 6 -15 -25 -47 4 -44 120 11 143 68 150 83 111 244 -23 93 -47
225 -57 308 -5 44 -4 57 7 57 8 0 7 4 -5 13 -15 11 -19 36 -25 159 l-7 146
-57 52 c-65 59 -148 188 -214 328 -94 202 -173 309 -268 358 -35 19 -55 35
-55 47 0 24 73 102 111 117 16 7 28 15 25 17 -2 2 -22 -5 -44 -16 -43 -22 -84
-68 -101 -112 -9 -25 -11 -26 -62 -18 -29 5 -57 13 -63 19 -15 15 -20 194 -8
260 36 191 146 310 352 380 97 33 232 32 323 -3 72 -28 177 -87 177 -99 0 -11
-48 -22 -95 -23 l-40 0 72 -71 c58 -56 81 -89 112 -155 81 -173 108 -387 69
-544 -9 -38 -84 -165 -97 -165 -7 0 -6 167 2 355 5 117 5 117 -2 20 -5 -55
-22 -157 -40 -227 -64 -260 -34 -427 115 -636 16 -21 16 -22 -13 -22 -46 0
-131 29 -142 48 -9 14 -10 12 -10 -13 -1 -43 31 -107 79 -159 l42 -45 -54 -4
-53 -3 58 -2 c69 -2 73 9 21 59 -35 32 -73 99 -74 127 0 9 5 10 18 3 28 -15
145 -32 155 -22 5 5 -17 47 -48 94 -104 161 -134 296 -102 466 9 46 19 86 22
89 13 14 17 -13 8 -72 -5 -36 -6 -70 -3 -76 11 -18 98 90 121 150 44 116 31
363 -28 523 l-26 68 24 52 c39 85 119 154 119 103 0 -15 42 -46 63 -46 22 0
47 -34 47 -63 0 -33 18 -35 49 -6 20 18 22 29 18 67 -3 24 -14 56 -26 71 -21
26 -55 90 -65 124 -3 10 -15 17 -31 17 -14 0 -28 7 -31 15 -4 9 -13 13 -23 10
-15 -4 -13 11 11 133 16 81 27 171 28 220 0 76 2 83 23 92 l22 9 -22 0 c-13 1
-23 6 -23 12 0 8 -4 8 -12 1 -12 -9 -105 -23 -155 -22 -11 0 -24 -7 -27 -16
-9 -23 -81 -50 -172 -64 -71 -12 -86 -11 -129 3 -85 30 -124 21 -216 -45 -28
-20 -184 -43 -240 -35 -21 3 -132 50 -246 104 -289 139 -384 173 -480 173 -64
0 -52 -19 15 -22 l57 -3 -50 -23 c-48 -23 -254 -94 -362 -125 l-52 -16 20 38
c11 22 18 54 17 79 -1 22 4 47 9 54 6 7 29 56 52 108 37 87 42 95 68 96 56 1
93 16 122 50 50 57 54 124 10 185 l-22 31 28 59 c16 32 32 59 37 59 4 0 27 -9
51 -19 23 -11 52 -22 65 -26 13 -4 22 -14 22 -27 0 -16 4 -19 23 -14 28 9 207
13 207 5 0 -3 -25 -43 -56 -90 -30 -46 -58 -88 -61 -93 -3 -4 4 -5 15 -2 17 6
24 0 37 -24 9 -18 14 -34 12 -37 -3 -3 -26 8 -52 23 -39 23 -62 28 -141 32
-60 3 -94 1 -94 -5 0 -6 39 -12 93 -15 l94 -4 144 -85 c79 -48 207 -121 283
-163 l140 -77 85 6 c47 3 137 13 199 21 103 15 116 15 153 0 53 -21 210 -56
253 -56 69 0 44 17 -33 23 -101 8 -285 69 -429 142 -116 58 -204 113 -209 131
-6 20 125 27 249 14 167 -17 332 -60 446 -117 118 -58 124 -61 89 -30 l-29 24
134 65 c142 70 177 92 166 104 -4 4 -14 1 -23 -6 -12 -10 -15 -10 -15 3 0 27
50 76 90 88 33 10 44 9 76 -8 60 -31 78 -62 69 -120 -6 -41 -14 -55 -57 -95
-28 -27 -46 -48 -41 -48 19 0 91 59 98 79 14 46 65 3 65 -55 0 -41 -52 -95
-133 -136 -38 -19 -56 -33 -47 -36 21 -7 50 -39 50 -55 0 -8 6 -30 14 -48 33
-80 116 -440 131 -569 5 -37 2 -76 -9 -117 -20 -77 -20 -102 0 -110 15 -5 74
41 74 59 0 5 9 27 19 51 19 39 108 312 133 402 6 22 17 60 25 85 32 101 63
281 62 362 l-1 83 -19 -125 c-22 -150 -29 -182 -84 -375 -78 -271 -143 -455
-179 -500 -15 -20 -15 -20 -16 0 0 11 9 54 21 95 76 274 138 769 126 1000 -10
175 -79 421 -177 625 -169 353 -314 639 -348 681 -45 57 -65 71 -271 190 -186
107 -229 140 -386 292 -123 121 -268 253 -365 334 -48 41 -63 47 -117 53 -56
7 -64 11 -87 44 l-26 36 46 7 c60 9 77 16 69 28 -5 7 -30 9 -74 4 -71 -7 -82
-2 -95 44 -7 20 -4 22 26 23 47 1 81 12 86 28 4 11 -8 12 -62 7 -42 -5 -66 -4
-66 3 0 5 9 13 20 16 29 9 24 26 -7 23 -24 -3 -29 3 -48 53 -12 31 -36 84 -54
118 -45 89 -40 111 24 111 25 0 86 -58 151 -144 42 -55 114 -189 114 -212 0
-7 7 -14 15 -14 9 0 15 10 15 26 0 22 3 24 23 19 61 -18 113 -63 174 -150 135
-196 357 -390 552 -485 329 -159 310 -147 373 -235 98 -137 302 -562 453 -945
104 -266 134 -352 169 -495 22 -89 25 -95 25 -54 1 52 -27 167 -70 289 -17 47
-37 105 -45 130 -9 25 -22 59 -30 77 -8 17 -14 34 -14 37 0 3 -9 26 -20 51
-11 25 -29 65 -40 90 -11 25 -20 47 -20 51 0 3 -13 35 -30 71 -16 35 -30 66
-30 68 0 9 -65 146 -142 300 -130 260 -210 385 -283 440 -18 14 -95 54 -172
89 -272 123 -477 287 -636 510 -32 44 -71 94 -85 110 -26 27 -137 86 -164 86
-7 0 -26 23 -41 51 -42 74 -144 205 -181 234 -41 31 -95 33 -121 5 -22 -24
-18 -40 40 -162 54 -117 66 -173 38 -182 -39 -12 -84 -71 -90 -117 -4 -24 -29
-91 -58 -149 -29 -58 -65 -133 -81 -168 -24 -55 -30 -61 -40 -47 -7 9 -17 14
-23 11 -5 -3 -16 1 -24 9 -21 20 -23 20 -78 -20 -27 -19 -51 -35 -54 -35 -18
0 2 69 46 158 66 135 73 159 53 190 -37 57 -212 103 -403 107 l-135 3 -45 104
c-55 123 -120 243 -156 287 -25 29 -65 43 -65 21 0 -5 6 -7 14 -4 9 3 28 -25
59 -88 58 -115 66 -155 38 -184 -11 -12 -18 -23 -16 -25 2 -2 -9 -4 -25 -5
-61 -2 -63 -6 -58 -102 6 -114 1 -135 -48 -185 -23 -23 -44 -53 -47 -67 -3
-14 -10 -38 -17 -55 -17 -42 2 -106 46 -155 35 -38 35 -39 14 -50 -19 -10 -21
-17 -16 -55 6 -39 5 -44 -15 -50 -51 -16 -234 51 -262 97 -33 51 104 233 259
344 34 25 64 50 66 57 2 6 1 57 -2 112 l-6 100 -3 -110 -2 -110 -76 -55 c-87
-64 -175 -154 -203 -211 -11 -21 -26 -39 -32 -39 -6 0 -69 39 -140 88 -72 48
-150 101 -174 117 -33 22 -56 49 -83 100 -43 81 -57 90 -208 145 -122 45 -194
51 -273 23 l-47 -17 -94 41 c-52 23 -114 47 -137 53 -24 6 -60 20 -80 30 -70
36 -101 35 -176 -4 -42 -22 -83 -36 -105 -36 -20 0 -50 -9 -67 -19 -28 -17
-33 -27 -44 -93 -28 -156 -8 -253 59 -288 33 -16 39 -25 50 -75 16 -72 33
-104 72 -136 31 -25 31 -26 15 -56 -8 -17 -19 -33 -24 -35 -16 -6 -153 -194
-182 -248 -10 -20 -28 -96 -40 -170 -12 -74 -23 -140 -25 -147 -3 -8 -37 -3
-115 17 -61 15 -149 34 -195 41 -46 6 -88 15 -92 18 -10 7 -54 197 -58 251 -3
30 -17 111 -43 238 -9 44 -24 45 -34 2 -16 -66 -20 -65 -39 10 -32 124 -98
322 -127 380 -24 47 -32 55 -65 62 -21 4 -60 17 -87 29 l-49 21 -98 -32 c-179
-60 -389 -159 -612 -290 -37 -21 -98 -69 -137 -107 -74 -73 -202 -178 -369
-305 -269 -204 -459 -475 -654 -930 -143 -334 -240 -817 -241 -1195 0 -57 -3
-103 -8 -103 -43 0 -78 235 -61 415 13 135 68 416 115 590 31 112 133 417 180
539 32 83 53 153 63 208 6 32 17 72 26 90 9 18 100 116 203 218 228 226 413
429 528 580 62 80 119 120 215 149 311 94 643 249 766 356 61 53 96 68 141 60
32 -6 33 -7 18 -24 -19 -21 -21 -41 -3 -41 6 0 31 29 54 63 71 106 247 277
284 277 27 0 59 -31 59 -57 0 -15 -25 -59 -61 -109 -49 -68 -65 -84 -80 -79
-22 7 -26 -14 -7 -33 20 -20 -4 -35 -36 -22 -49 18 -65 -10 -16 -30 l29 -12
-19 -39 c-22 -41 -26 -69 -10 -69 5 0 16 12 24 27 l14 27 11 -39 c6 -22 11
-69 11 -105 0 -55 16 -111 115 -407 63 -189 115 -352 115 -361 0 -18 18 -42
31 -42 4 0 -1 30 -13 68 -11 37 -23 81 -28 97 -10 38 -138 423 -150 450 -25
57 -41 132 -49 221 -5 54 -15 111 -21 126 -16 34 -7 54 94 207 42 63 76 121
76 128 0 24 -56 73 -83 73 -14 0 -51 -20 -83 -43z m1036 -276 c19 -10 69 -28
110 -41 78 -23 164 -62 175 -80 9 -14 35 -12 69 5 52 28 196 32 196 7 0 -4
-38 -21 -85 -36 -89 -30 -106 -49 -60 -66 43 -16 253 -141 271 -161 9 -10 14
-22 11 -25 -3 -4 -65 8 -137 25 -72 18 -166 36 -209 41 -82 9 -170 45 -239 97
-31 23 -39 24 -119 19 -63 -4 -94 -10 -112 -24 -63 -46 -92 -55 -164 -49 -93
8 -119 34 -82 83 8 10 15 34 15 52 0 22 5 32 15 32 8 0 15 5 15 10 0 6 -7 13
-15 16 -43 17 12 54 79 54 18 0 61 16 96 35 71 39 101 40 170 6z m2751 -101
c0 -3 -23 -30 -52 -60 -48 -52 -51 -53 -45 -25 7 32 70 99 87 93 6 -2 10 -6
10 -8z m25 -67 c40 -43 135 -191 145 -226 26 -91 -6 -183 -96 -272 -23 -24
-45 -49 -48 -57 -4 -9 -6 -7 -6 5 -1 9 -3 17 -5 17 -2 0 -12 3 -22 7 -13 5
-15 3 -9 -8 5 -7 -3 -4 -19 8 -15 12 -34 19 -42 16 -8 -3 -14 1 -14 8 0 7 -3
10 -6 7 -3 -4 -17 0 -31 7 -16 9 -33 11 -42 6 -19 -11 -79 18 -86 41 -16 46
206 468 246 468 5 0 21 -12 35 -27z m-570 -8 c32 -9 79 -26 104 -38 40 -20 45
-25 42 -52 -7 -62 -103 -203 -122 -177 -3 5 -25 8 -50 7 -57 -2 -77 4 -58 17
9 7 7 8 -9 5 -15 -3 -20 -1 -16 9 3 8 -1 14 -8 14 -7 0 -9 3 -6 7 4 3 1 16 -7
28 -13 20 -21 54 -16 65 2 3 4 25 4 50 2 36 -2 49 -23 68 l-26 23 66 -5 c36
-4 92 -13 125 -21z m-1706 1 c0 -3 -4 -8 -10 -11 -5 -3 -10 -1 -10 4 0 6 5 11
10 11 6 0 10 -2 10 -4z m104 -21 c43 -18 51 -33 42 -80 l-7 -36 -49 28 c-28
15 -50 34 -50 41 0 6 -9 12 -21 12 -12 0 -17 4 -14 11 4 6 14 8 22 5 9 -4 17
1 20 14 6 24 10 24 57 5z m1363 -70 c25 -18 51 -111 35 -127 -18 -18 -37 -2
-40 33 -6 73 -55 79 -88 10 -32 -66 -13 -148 32 -139 11 2 28 20 39 41 20 36
38 46 50 27 6 -10 -18 -65 -44 -94 -15 -18 -15 -19 9 -3 14 8 44 21 67 28 67
19 66 22 104 -221 5 -36 12 -77 14 -92 4 -26 2 -28 -30 -28 -41 0 -65 -29 -65
-76 l0 -32 -174 -42 c-96 -23 -183 -40 -193 -38 -20 3 -68 94 -128 244 -45
109 -42 126 20 134 l39 5 -36 13 c-89 32 -140 194 -68 217 57 18 150 -61 165
-142 l7 -38 14 27 c8 15 23 32 34 38 26 14 93 13 108 -2 7 -7 12 -8 12 -2 0 5
-6 16 -12 23 -8 7 -13 39 -12 86 0 61 5 80 25 109 37 54 77 68 116 41z m-1911
-6 c3 -6 -1 -18 -10 -27 -15 -15 -18 -15 -26 -2 -5 8 -10 21 -10 28 0 15 36
16 46 1z m-66 -32 c0 -7 6 -22 14 -32 13 -18 15 -18 40 -2 25 17 27 16 72 -19
44 -33 104 -99 104 -113 0 -4 -33 -12 -74 -18 -84 -14 -120 -28 -190 -78 -47
-34 -73 -45 -61 -26 3 5 1 12 -4 15 -5 4 -12 2 -16 -4 -10 -15 -91 -12 -105 4
-13 17 -40 112 -33 119 2 3 20 1 40 -3 29 -7 46 -4 89 18 30 14 54 29 54 33 0
4 -54 7 -119 6 -66 -1 -122 1 -126 5 -8 7 13 49 29 60 6 4 33 8 59 8 27 0 58
5 70 12 51 27 157 37 157 15z m-332 -5 c10 -7 10 -15 0 -43 l-12 -34 -12 30
c-22 51 -12 70 24 47z m1407 -165 c83 -55 152 -101 153 -103 8 -6 -10 -44 -22
-44 -14 0 -171 88 -245 139 -49 33 -53 40 -56 79 -2 30 0 40 8 35 7 -4 80 -51
162 -106z m885 63 c0 -22 -25 -60 -43 -66 -23 -7 -37 10 -37 49 0 25 3 27 40
27 22 0 40 -4 40 -10z m470 -150 c0 -5 -2 -10 -4 -10 -3 0 -8 5 -11 10 -3 6
-1 10 4 10 6 0 11 -4 11 -10z m-2392 -106 c24 -14 105 -112 181 -221 23 -31
43 -46 86 -62 31 -12 60 -21 64 -21 14 0 36 -40 54 -99 25 -80 23 -96 -23
-133 -71 -56 -82 -84 -87 -216 -5 -103 -8 -119 -26 -134 -18 -13 -19 -19 -8
-31 11 -14 5 -23 -34 -61 -54 -51 -52 -65 13 -113 20 -15 41 -30 46 -34 5 -4
-27 -5 -70 -2 l-79 6 -74 69 c-64 59 -91 79 -91 64 0 -9 203 -206 212 -206 5
0 6 9 3 20 -6 18 -2 20 39 20 25 0 46 -4 46 -9 0 -5 20 -18 45 -30 25 -12 45
-28 45 -36 0 -8 6 -18 14 -22 8 -4 28 -28 44 -52 l30 -44 -32 -26 c-53 -44
-89 -67 -129 -81 l-37 -14 -114 116 c-101 103 -256 238 -273 238 -4 0 -48 -44
-99 -97 l-93 -98 5 50 c5 45 0 72 -29 145 -5 11 19 33 78 75 135 95 184 155
126 155 -13 0 0 19 46 65 60 63 70 85 37 85 -8 0 -32 11 -52 25 -20 14 -41 25
-47 25 -5 0 -17 4 -24 9 -12 8 -11 13 10 30 24 21 24 21 5 36 -12 9 -41 15
-72 15 -60 0 -80 15 -65 51 10 27 45 142 87 294 16 55 40 134 54 175 l25 75
60 6 c33 3 64 6 68 7 5 1 21 -5 35 -14z m996 -14 c37 -12 103 -39 148 -60 92
-45 120 -48 163 -20 42 28 105 8 131 -42 26 -51 21 -55 -61 -56 -42 -1 -81 -4
-87 -8 -6 -4 -8 -25 -5 -55 3 -27 3 -49 0 -49 -3 0 -89 32 -189 72 -204 79
-186 63 -199 181 -8 68 -5 69 99 37z m1364 -17 c11 -34 10 -39 -8 -52 -13 -9
-20 -25 -20 -46 0 -18 -27 -102 -59 -186 -32 -85 -73 -197 -91 -249 -45 -136
-88 -190 -152 -190 -25 0 -50 -15 -201 -123 l-97 -69 -79 16 c-125 25 -310 41
-323 28 -14 -14 46 -71 145 -139 81 -56 76 -68 -27 -69 -89 0 -100 -7 -181
-103 -33 -39 -65 -71 -71 -71 -6 0 -21 11 -33 24 -19 20 -27 49 -43 157 -10
73 -34 207 -51 297 l-33 164 36 -6 c19 -3 108 -9 196 -12 161 -7 162 -7 174
16 14 27 9 94 -20 248 -11 57 -20 105 -20 108 0 2 22 4 50 4 l50 0 40 -80 c51
-101 71 -115 153 -106 l62 6 20 -36 c26 -48 86 -88 120 -80 31 8 40 39 32 111
l-5 54 53 16 c65 18 92 19 102 2 14 -23 57 -47 85 -47 33 0 58 32 58 76 0 17
7 45 15 60 11 21 15 62 15 145 l0 116 38 26 c50 34 57 33 70 -10z m299 3 c0
-8 -6 -12 -15 -9 -11 5 -11 7 0 14 7 5 13 9 14 9 0 0 1 -6 1 -14z m-194 -109
c76 -35 159 -102 268 -214 117 -121 165 -209 240 -446 54 -171 96 -277 110
-277 13 0 11 6 -15 58 -13 26 -47 121 -76 212 -75 238 -130 349 -218 442 l-35
37 37 7 c128 24 297 -80 364 -224 23 -50 27 -73 30 -177 2 -66 0 -144 -6 -172
-5 -29 -6 -53 -1 -53 15 0 24 74 24 200 0 104 -4 135 -22 184 -30 80 -89 154
-156 196 l-55 35 61 41 c34 23 95 72 135 109 83 77 88 77 116 -8 32 -95 49
-229 49 -382 1 -129 -3 -167 -27 -270 -49 -211 -120 -367 -205 -449 l-41 -40
-71 77 c-54 59 -89 86 -150 118 -96 50 -165 110 -209 181 -18 29 -45 71 -60
93 -15 22 -50 84 -79 138 -46 86 -52 103 -46 137 5 27 -1 67 -19 132 -34 129
-66 282 -66 319 0 31 1 31 35 26 20 -3 59 -17 88 -30z m-339 -58 c37 -29 49
-55 36 -79 -6 -11 -19 -20 -30 -20 -10 0 -22 -5 -25 -10 -8 -13 -56 -4 -67 12
-4 7 -8 30 -8 50 0 27 6 41 22 52 29 21 40 20 72 -5z m-1178 -1 c4 -7 3 -8 -4
-4 -39 24 -50 -214 -16 -344 6 -24 6 -24 -11 -8 -13 12 -20 42 -26 105 -8 79
-3 237 8 256 7 11 41 8 49 -5z m-2413 -82 c63 -35 133 -76 155 -90 23 -14 48
-26 55 -26 11 0 83 44 155 97 l24 17 -8 -50 c-15 -103 -42 -217 -53 -223 -21
-13 -330 -83 -340 -77 -5 3 -12 23 -16 43 -16 90 -68 292 -85 331 -10 23 -15
42 -10 42 5 0 60 -29 123 -64z m3848 -151 c9 -41 8 -60 -5 -105 -8 -30 -27
-117 -41 -193 -32 -176 -56 -227 -115 -240 -14 -3 -75 -21 -136 -39 l-112 -35
-43 23 c-24 13 -70 31 -102 40 -32 9 -59 20 -62 24 -9 14 241 180 273 180 62
0 120 64 152 170 21 67 102 290 126 345 l17 40 18 -80 c10 -44 23 -103 30
-130z m-941 185 c0 -5 -5 -10 -11 -10 -5 0 -7 5 -4 10 3 6 8 10 11 10 2 0 4
-4 4 -10z m120 -104 c0 -6 -7 -2 -15 8 -8 11 -15 25 -15 30 0 6 7 2 15 -8 8
-11 15 -25 15 -30z m-688 -83 c2 -49 4 -89 4 -89 -1 -1 -25 12 -53 28 l-53 30
42 59 c23 32 45 59 49 59 4 0 9 -39 11 -87z m188 27 c0 -5 -9 -10 -20 -10 -11
0 -20 5 -20 10 0 6 9 10 20 10 11 0 20 -4 20 -10z m95 -21 c4 -6 5 -13 1 -16
-8 -8 -56 6 -56 17 0 13 47 13 55 -1z m-441 -115 c9 -8 21 -24 26 -34 15 -29
-10 -38 -31 -12 -15 19 -27 22 -100 22 -77 0 -85 -2 -104 -25 -14 -17 -24 -22
-34 -16 -11 7 -10 13 5 36 24 37 46 44 141 44 62 1 85 -3 97 -15z m258 -55
c28 -17 29 -19 8 -14 -14 4 -32 13 -40 21 -21 20 -5 17 32 -7z m20 -41 c15
-12 43 -125 68 -278 6 -36 14 -74 17 -84 4 -13 -10 -6 -46 24 l-51 43 21 23
c18 19 20 26 9 39 -7 8 -19 15 -26 15 -10 0 -14 16 -15 58 0 31 -4 83 -8 115
-7 60 -1 69 31 45z m-3085 -29 c86 -34 172 -85 191 -113 12 -17 40 -50 62 -74
45 -48 49 -57 20 -49 -29 7 -34 -9 -13 -38 24 -32 139 -123 180 -143 18 -9 33
-21 33 -29 0 -7 6 -10 14 -7 26 10 25 -12 -1 -50 -17 -23 -29 -32 -33 -25 -11
17 -18 -47 -9 -89 5 -29 7 -31 8 -11 1 23 6 27 49 32 26 4 57 9 68 13 19 5 22
1 28 -40 10 -66 58 -153 122 -224 30 -34 54 -62 51 -62 -20 0 -104 38 -162 75
-69 43 -131 109 -141 152 -3 12 -11 20 -18 17 -7 -3 -55 42 -106 98 -52 57
-99 108 -104 113 -18 16 -110 126 -162 192 -71 89 -143 206 -150 242 -6 28 -4
31 19 31 14 0 39 -5 54 -11z m2836 -4 c1 -5 -6 -11 -15 -13 -11 -2 -18 3 -18
13 0 17 30 18 33 0z m-240 -10 c1 -5 -6 -11 -15 -13 -11 -2 -18 3 -18 13 0 17
30 18 33 0z m-1823 -122 c63 -32 116 -63 118 -70 3 -11 -185 -170 -192 -162
-1 2 -11 49 -21 104 -10 55 -24 119 -31 143 -9 33 -9 42 0 42 7 0 64 -26 126
-57z m735 30 c-18 -42 -55 -163 -67 -220 l-13 -61 -53 35 c-68 46 -152 121
-152 137 0 19 230 124 274 126 14 0 16 -4 11 -17z m1387 -53 c12 0 55 -90 63
-130 13 -69 16 -75 27 -57 28 51 60 -22 38 -87 -12 -36 -65 -90 -80 -81 -4 3
-11 -6 -14 -20 -10 -41 -71 -99 -140 -134 l-64 -33 -58 17 c-32 9 -70 25 -84
35 -23 17 -27 17 -36 3 -8 -14 -13 -12 -28 13 -12 18 -15 29 -8 32 16 5 -17
70 -40 78 -10 3 -30 21 -45 41 -21 27 -27 47 -28 86 0 59 18 72 34 26 14 -40
14 -42 -1 -33 -7 4 -4 -3 7 -17 11 -13 20 -25 20 -26 0 -1 -1 48 -3 108 -5
142 -5 142 130 174 l27 7 -6 -51 c-6 -56 4 -64 44 -36 20 14 21 13 32 -30 19
-75 41 -70 85 19 14 29 26 56 26 59 0 3 4 17 9 30 9 23 13 24 48 16 21 -5 41
-9 45 -9z m843 -120 c199 -44 333 -106 428 -201 54 -55 71 -62 45 -19 -11 17
-7 26 40 73 28 29 52 59 52 67 -1 12 -3 11 -14 -2 -19 -25 -29 -22 -15 5 16
30 28 37 65 37 43 0 84 -34 84 -70 0 -16 5 -32 11 -36 14 -8 7 -79 -16 -158
-16 -53 -18 -56 -49 -56 -17 0 -38 6 -45 13 -11 10 -13 8 -8 -13 5 -23 1 -26
-46 -42 -29 -9 -53 -15 -55 -13 -2 2 2 13 8 25 6 11 9 26 7 33 -2 7 -10 0 -17
-15 -7 -16 -18 -28 -25 -28 -6 0 -53 -20 -104 -45 l-92 -45 -111 25 c-122 28
-137 29 -123 16 12 -10 256 -67 333 -77 60 -8 76 -27 43 -50 -28 -20 -51 -66
-51 -103 0 -16 -3 -32 -8 -35 -11 -7 -243 31 -341 56 -97 25 -130 48 -137 98
-7 57 32 90 171 140 50 18 124 48 165 66 70 30 81 32 165 29 l90 -4 -87 14
c-48 8 -115 24 -150 36 -142 47 -351 165 -476 267 -35 28 -41 37 -28 42 27 9
184 -7 291 -30z m-2169 -37 c-17 -122 -64 -259 -87 -251 -7 2 -21 -5 -33 -15
-26 -23 -222 -131 -296 -163 l-55 -24 70 6 c39 3 103 10 143 15 115 16 112 8
-34 -91 -196 -134 -243 -148 -368 -113 -79 21 -118 47 -189 121 -63 67 -103
143 -113 214 -6 41 -4 46 16 51 20 5 20 7 6 29 -22 34 -46 135 -46 197 0 81
18 52 33 -52 7 -48 19 -93 25 -99 17 -17 46 1 50 31 3 19 11 14 73 -43 75 -69
146 -120 229 -163 45 -23 54 -25 89 -15 42 13 154 90 272 188 42 34 80 60 83
57 3 -4 6 -22 7 -42 0 -20 4 -45 9 -56 8 -19 9 -19 9 3 1 12 5 22 11 22 12 0
40 93 40 132 0 31 13 62 38 91 23 26 25 22 18 -30z m-908 -96 c2 -15 -1 -27
-7 -27 -6 0 -11 6 -11 14 0 8 -3 22 -7 32 -4 12 -2 15 8 12 8 -2 15 -17 17
-31z m828 17 c-3 -9 -6 -22 -6 -30 0 -8 -4 -14 -10 -14 -11 0 -14 43 -3 53 12
13 25 7 19 -9z m1709 -138 c5 -39 14 -56 44 -85 21 -20 76 -84 121 -143 78
-102 115 -133 103 -89 -4 15 3 21 29 29 75 23 78 22 78 -7 0 -70 79 -129 205
-156 82 -17 321 -104 287 -105 -41 0 -122 -58 -122 -86 0 -7 -3 -15 -8 -18
-10 -6 -254 49 -281 63 -30 16 -35 -3 -12 -46 14 -29 105 -238 138 -320 3 -8
-3 -13 -16 -13 -30 0 -77 -25 -95 -52 l-15 -22 -51 43 c-66 56 -180 125 -240
147 -48 17 -49 18 -74 93 l-25 76 27 30 27 30 -28 -25 c-24 -21 -30 -22 -37
-10 -5 8 -10 18 -10 23 0 4 -35 -15 -77 -41 -43 -27 -77 -54 -75 -61 3 -13
-38 -5 -48 9 -3 4 -15 10 -27 14 -18 6 -23 3 -23 -9 0 -12 -8 -16 -32 -13 -30
3 -34 7 -39 43 -5 30 -7 33 -8 13 l-1 -28 -81 0 c-74 0 -80 2 -73 18 11 22 11
91 1 120 -8 22 -7 22 67 22 62 0 75 -3 80 -17 2 -10 4 50 4 132 0 83 0 167 1
188 l1 38 38 -7 c77 -14 75 -9 68 -168 -4 -77 -9 -155 -12 -172 l-6 -32 65 33
c35 18 88 38 116 46 58 15 58 15 13 104 -37 74 -76 119 -121 140 -23 10 -41
21 -41 25 0 4 24 11 53 14 59 8 83 19 73 34 -4 6 3 16 15 22 14 8 18 15 11 22
-7 7 -32 4 -79 -8 -39 -10 -111 -19 -170 -20 l-103 -2 0 32 c0 36 29 58 90 71
47 10 53 14 40 30 -8 10 0 15 40 25 52 12 72 32 52 52 -7 7 7 22 49 50 32 22
62 45 66 51 7 12 15 -23 28 -127z m526 58 c55 -34 73 -54 49 -54 -6 0 -33 -21
-61 -47 -34 -32 -48 -51 -44 -63 9 -27 -53 -119 -84 -126 -14 -2 -52 -11 -84
-20 -32 -8 -62 -12 -66 -9 -5 2 -35 39 -66 80 l-58 75 39 44 c22 24 47 56 57
70 32 46 64 60 131 58 35 -1 74 5 91 13 17 7 32 14 33 14 2 1 31 -15 63 -35z
m1241 -134 c-3 -56 -20 -100 -38 -100 -7 0 -29 7 -47 16 -32 15 -57 60 -57
102 0 13 66 31 110 29 l35 -2 -3 -45z m-2342 -101 c0 -26 -22 -59 -39 -59 -5
0 -14 7 -21 15 -7 8 -19 15 -26 15 -20 0 -18 6 13 45 23 29 29 32 50 22 16 -7
23 -19 23 -38z m209 -43 c7 -8 23 -17 38 -21 l26 -6 -28 -29 c-56 -58 -187
-79 -250 -40 -53 33 -54 69 -2 70 12 0 17 8 18 28 0 15 4 35 7 45 7 16 9 16
27 3 27 -20 63 -19 105 4 l35 18 6 -29 c4 -16 12 -35 18 -43z m1531 54 c13 -8
10 -19 -18 -75 -29 -60 -35 -65 -55 -58 -12 4 -43 8 -69 7 -41 -1 -48 2 -48
18 0 32 29 78 63 98 34 21 102 26 127 10z m-1470 -62 c0 -5 -10 -6 -22 -3 -36
11 -41 22 -8 17 16 -2 30 -9 30 -14z m-339 -5 c8 -10 9 -14 2 -10 -23 14 -53
-38 -93 -159 -22 -67 -40 -128 -40 -136 0 -9 19 -14 67 -16 37 -1 69 -5 71 -7
3 -3 -1 -11 -8 -20 -12 -15 -10 -85 4 -117 7 -16 0 -18 -83 -18 -72 0 -93 -3
-97 -15 -4 -8 -17 -15 -30 -15 -19 0 -24 5 -24 25 0 14 -6 25 -13 25 -7 0 -35
20 -64 45 -28 25 -53 45 -56 45 -3 0 -7 -9 -10 -20 -3 -11 -9 -20 -14 -20 -15
0 -45 60 -38 78 5 14 4 14 -6 5 -10 -10 -9 -20 5 -49 9 -20 16 -38 14 -39 -6
-5 -124 -12 -136 -7 -10 3 -9 9 5 24 12 14 5 12 -22 -7 -34 -24 -40 -35 -42
-67 -2 -34 3 -44 40 -79 38 -35 74 -56 81 -47 2 1 27 44 57 93 77 128 70 124
128 73 27 -24 45 -47 41 -53 -4 -5 -11 -28 -14 -50 -9 -46 -71 -167 -122 -237
-40 -56 -59 -59 -121 -24 l-41 24 -6 -23 c-3 -13 -9 -30 -12 -39 -4 -12 0 -16
15 -16 12 0 21 -6 21 -15 0 -8 44 -67 97 -130 l97 -115 17 70 c10 39 20 74 23
78 2 4 178 7 391 7 l387 -1 34 -104 c18 -58 34 -109 34 -114 0 -8 -843 -3
-880 6 -13 2 -15 -14 -16 -98 -2 -123 -11 -191 -27 -197 -7 -3 -67 -45 -132
-94 -133 -99 -239 -197 -232 -216 9 -26 108 -9 195 33 46 22 85 40 87 40 2 0
-30 -35 -72 -77 -41 -43 -82 -90 -91 -105 -13 -23 -23 -28 -52 -26 -74 4 -120
-2 -120 -16 0 -9 21 -15 73 -19 174 -13 231 -71 239 -246 l3 -63 -111 1 c-173
3 -299 -30 -377 -99 -21 -18 -39 -31 -41 -29 -9 11 -47 185 -48 218 0 20 7 51
15 68 23 43 92 102 148 125 53 22 67 45 22 33 -44 -11 -135 -77 -170 -123 -40
-53 -43 -105 -12 -232 l20 -85 -21 -15 c-11 -8 -52 -39 -91 -68 -70 -54 -88
-59 -128 -33 -13 8 -12 23 3 108 31 165 41 189 90 222 70 49 145 132 177 198
l31 61 -12 113 c-11 103 -28 181 -29 138 -1 -19 -88 -129 -102 -129 -16 0 -10
45 15 121 43 130 46 137 57 117 6 -10 19 -18 29 -18 23 0 27 -28 5 -36 -13 -5
-22 -34 -11 -34 3 0 56 51 118 113 64 64 140 130 176 151 34 21 59 42 56 47
-3 6 -12 8 -20 5 -18 -7 -18 -9 12 107 17 64 23 102 17 108 -9 9 -56 -134 -77
-231 -3 -14 -19 -33 -35 -43 -16 -9 -66 -51 -109 -92 -63 -59 -86 -75 -110
-75 -17 0 -37 7 -45 15 -8 8 -17 12 -20 9 -6 -6 -84 171 -92 211 l-6 30 25
-28 c32 -35 32 -31 0 49 -22 56 -25 73 -19 128 5 41 3 71 -4 84 -9 18 -6 33
15 84 14 35 28 65 30 67 3 3 18 -11 34 -30 l30 -34 30 35 c16 19 29 37 29 40
0 5 -55 47 -121 92 -22 15 -42 29 -44 31 -2 2 9 39 24 83 l27 79 105 7 c58 3
118 11 134 17 27 11 32 9 72 -34 l44 -45 33 22 c17 13 34 24 36 25 2 1 -16 28
-40 58 -120 152 -129 179 -87 272 12 26 20 53 20 59 -2 12 77 79 85 71 8 -9
-7 -47 -20 -47 -6 0 -3 -6 7 -13 22 -16 12 -43 -24 -62 -15 -8 -30 -25 -32
-37 -3 -13 -9 -31 -13 -41 -6 -15 -3 -14 17 5 20 19 68 50 101 66 17 8 5 -29
-19 -57 -14 -17 -22 -31 -18 -31 20 0 107 66 139 106 35 42 36 46 21 63 -15
17 -14 19 24 30 26 8 66 35 110 77 60 57 73 65 97 59 15 -3 38 -13 50 -23 l21
-17 -57 -87 -58 -87 34 -12 c19 -6 50 -25 69 -41 34 -30 34 -30 34 -7 0 50 41
213 62 252 13 23 34 47 48 54 36 18 95 16 111 -4z m3063 -107 c141 -71 406
-222 429 -245 7 -7 -8 -19 -48 -36 -47 -21 -63 -24 -79 -15 -12 6 -30 12 -41
14 -56 11 -75 25 -75 56 0 38 -32 94 -47 79 -15 -15 -42 0 -49 26 -3 13 -15
31 -25 41 -19 17 -19 17 -11 -7 13 -32 -9 -74 -50 -95 -27 -14 -45 -15 -163
-4 -131 13 -247 8 -275 -11 -26 -17 53 -74 208 -151 107 -54 139 -74 125 -79
-27 -10 -215 -29 -287 -29 -57 0 -72 5 -145 46 -45 25 -81 48 -81 51 0 15 216
280 292 357 87 88 88 89 129 83 23 -3 109 -39 193 -81z m-1287 -9 c28 -31 33
-44 33 -86 0 -38 -6 -56 -25 -80 -68 -80 -202 -55 -235 45 -10 29 -9 43 5 79
23 62 64 87 134 82 47 -3 59 -9 88 -40z m-3831 -44 c-10 -10 -19 5 -10 18 6
11 8 11 12 0 2 -7 1 -15 -2 -18z m434 -55 c76 -13 66 -8 74 -33 5 -18 1 -20
-42 -20 -26 0 -61 -4 -79 -8 -30 -8 -33 -6 -48 29 -20 49 -19 58 8 50 12 -4
51 -12 87 -18z m370 5 c0 -4 -10 -32 -22 -61 l-23 -54 -52 6 c-70 8 -103 22
-103 43 0 36 19 48 92 59 97 15 108 15 108 7z m440 -17 c0 -13 -7 -40 -15 -59
-8 -20 -15 -49 -16 -64 -1 -21 -4 -15 -13 22 -7 28 -15 67 -19 88 -6 37 -5 37
29 37 29 0 34 -3 34 -24z m-305 -5 c-3 -6 -16 -16 -28 -22 -21 -11 -21 -10 2
15 23 25 40 29 26 7z m36 -83 c1 -7 1 -19 0 -25 -1 -7 8 -13 19 -13 36 0 127
-50 139 -77 16 -35 14 -40 -18 -51 -42 -15 -131 -7 -205 18 -110 36 -124 80
-36 109 23 8 51 22 61 32 22 22 38 24 40 7z m2659 -38 c13 -8 9 -21 -25 -86
-22 -41 -44 -78 -48 -81 -5 -3 -23 2 -40 10 -18 9 -40 18 -49 21 -39 12 -10
103 40 130 31 17 100 20 122 6z m-3360 -18 c27 -11 50 -28 60 -44 13 -25 13
-29 -2 -44 -52 -53 -308 -22 -308 37 0 17 37 49 70 62 32 12 137 5 180 -11z
m2516 -196 c14 -47 30 -83 35 -80 5 2 33 -7 62 -21 124 -58 265 -170 253 -200
-3 -9 -6 -22 -6 -29 0 -7 -17 -18 -38 -24 -37 -11 -59 -28 -94 -71 -18 -22
-48 -29 -48 -11 0 5 9 42 19 82 11 40 23 94 27 121 8 62 -6 61 -73 -3 l-51
-50 10 -112 c12 -138 16 -153 32 -115 12 28 13 28 35 10 l22 -18 -29 -37 c-16
-21 -32 -35 -36 -31 -3 3 -6 -6 -6 -20 0 -26 -2 -27 -54 -27 -53 0 -55 1 -61
33 -4 17 -25 94 -48 169 -30 103 -44 135 -53 127 -8 -7 -13 -1 -17 23 -9 47
-22 200 -20 218 2 8 -9 41 -23 73 -14 32 -24 60 -22 62 1 1 30 19 63 38 l59
35 18 -28 c9 -16 29 -67 44 -114z m819 69 c-14 -32 -28 -55 -32 -52 -3 4 7 31
23 61 37 71 42 65 9 -9z m-68 -49 c73 -80 17 -196 -95 -196 -34 0 -49 6 -80
34 -33 31 -37 40 -37 84 0 40 5 56 25 77 34 37 57 45 110 41 35 -3 51 -11 77
-40z m-2917 7 c0 -18 -40 -236 -43 -240 -4 -3 -19 87 -32 184 -5 38 -3 42 23
51 34 13 52 14 52 5z m3558 -69 c37 -15 73 -31 80 -37 13 -11 17 -124 4 -145
-8 -12 -20 1 -182 182 l-35 39 33 -6 c18 -4 63 -19 100 -33z m-90 -36 c32 -35
84 -90 115 -123 l56 -59 16 36 c8 21 15 58 15 83 0 45 4 51 28 37 22 -15 35
-177 28 -367 -6 -197 -17 -268 -43 -298 -50 -54 -217 -149 -359 -204 -9 -3
-14 2 -14 16 0 39 -51 124 -109 181 -67 67 -134 100 -216 108 -46 4 -64 10
-78 28 -26 34 -143 108 -215 136 l-63 25 61 69 c33 38 84 101 113 141 51 71
54 73 122 93 120 36 346 112 404 136 31 13 61 23 68 24 6 0 38 -28 71 -62z
m-1651 9 c13 -13 45 -149 36 -157 -8 -8 -641 -6 -649 2 -8 9 22 122 41 153 12
19 21 20 286 17 191 -3 278 -7 286 -15z m125 -67 c4 -108 -11 -108 -27 0 -4
25 -9 53 -11 63 -4 12 0 17 15 17 18 0 20 -8 23 -80z m836 -62 c-4 -12 -8 -11
-53 8 -37 15 -42 23 -24 41 9 9 20 5 46 -14 18 -14 32 -30 31 -35z m1050 23
c130 -65 206 -91 263 -91 44 0 58 -5 81 -27 35 -33 35 -60 3 -95 -39 -42 -73
-47 -102 -14 -16 19 -31 26 -50 24 -25 -3 -28 1 -31 30 -2 20 -9 32 -18 32
-20 0 -18 -63 6 -130 19 -53 19 -56 1 -80 -12 -17 -29 -26 -53 -28 -30 -3 -42
4 -86 47 -27 27 -60 52 -71 56 -19 6 -21 14 -21 93 0 48 -3 117 -7 155 -3 37
-3 67 1 67 3 0 41 -17 84 -39z m937 -3 c-30 -99 -47 -190 -52 -290 l-6 -117
-71 37 c-60 32 -71 42 -79 71 -12 48 15 112 64 154 31 27 39 41 39 67 0 26 3
31 16 26 14 -5 16 -1 11 24 -6 26 -3 30 21 36 15 3 32 7 37 9 23 8 27 4 20
-17z m-2034 -28 c10 -6 19 -16 19 -23 0 -14 -117 -152 -128 -151 -4 0 -26 9
-49 20 -38 17 -43 23 -43 53 0 26 9 42 39 72 35 35 44 39 90 39 29 0 61 -5 72
-10z m89 -10 c-15 -28 -162 -211 -192 -238 -16 -14 -31 -20 -42 -16 -14 5 -5
19 46 73 35 36 87 96 117 134 29 37 59 67 67 67 12 0 12 -4 4 -20z m1670 -21
c0 -10 -7 -19 -15 -19 -8 0 -15 -6 -15 -14 0 -21 -19 -30 -34 -17 -11 9 -15 3
-20 -27 -3 -21 -15 -47 -26 -57 -24 -22 -25 -46 -4 -86 8 -17 14 -32 12 -33
-2 -1 -39 -10 -82 -19 -94 -20 -193 -64 -253 -113 l-43 -35 7 33 c3 18 10 41
14 50 14 26 11 56 -11 98 -25 50 -25 70 0 70 34 0 70 -50 70 -97 0 -23 5 -45
11 -49 20 -12 63 31 97 96 40 80 42 127 6 170 -15 17 -25 32 -23 34 8 6 285
42 297 38 6 -2 12 -13 12 -23z m-3431 -82 l1 -28 -45 38 c-38 31 -42 39 -28
44 10 4 27 17 38 29 l20 22 7 -38 c4 -22 7 -52 7 -67z m-1339 -17 c22 -44 40
-86 40 -94 0 -8 -15 -23 -32 -35 -73 -47 -91 -60 -98 -72 -5 -7 -20 -9 -42 -5
-91 17 -105 77 -35 154 24 26 61 66 82 90 21 23 40 42 41 42 2 0 22 -36 44
-80z m2869 -47 l23 -15 -28 -30 c-29 -29 -30 -29 -104 -23 -41 4 -78 10 -83
14 -12 12 49 63 85 71 39 9 74 3 107 -17z m2364 -50 c-17 -80 -92 -307 -123
-377 l-22 -49 -31 49 c-30 48 -55 136 -40 142 30 10 38 22 26 40 -10 16 -2 28
55 89 37 39 83 95 102 126 19 30 38 53 41 51 4 -2 0 -34 -8 -71z m-4730 26 c9
-17 17 -39 17 -49 0 -11 5 -30 11 -43 7 -15 8 -31 2 -40 -6 -12 -16 2 -42 58
-30 68 -35 105 -14 105 4 0 16 -14 26 -31z m2331 -70 c110 -26 232 -81 304
-138 51 -41 64 -61 40 -61 -7 0 -20 -4 -28 -10 -12 -7 -9 -13 13 -30 41 -33
67 -91 67 -152 1 -42 3 -49 11 -35 21 35 -14 140 -60 181 -12 11 -21 23 -21
28 0 4 35 8 78 8 61 0 88 -5 130 -25 61 -28 151 -114 181 -172 l20 -41 -30 -6
c-17 -3 -43 -18 -58 -33 -14 -16 -42 -41 -62 -58 -101 -87 -136 -119 -266
-247 -79 -77 -143 -142 -143 -143 0 -2 17 5 37 15 21 10 41 16 45 13 5 -2 8
-22 8 -44 0 -21 2 -39 5 -39 3 0 37 16 75 35 38 19 72 35 74 35 3 0 2 -17 -1
-37 -3 -21 -4 -36 -1 -33 3 3 49 74 103 158 79 123 105 157 136 172 20 11 67
42 104 70 l66 50 10 -28 c6 -15 9 -68 7 -122 -4 -82 -9 -104 -37 -162 -24 -50
-39 -70 -57 -74 -13 -3 -24 -10 -24 -15 0 -12 80 21 182 73 46 24 87 45 92 47
11 5 -2 -73 -25 -138 -22 -65 -85 -164 -134 -211 -19 -19 -35 -38 -35 -42 0
-4 22 -8 50 -8 53 0 112 -19 173 -57 46 -29 47 -39 3 -47 -36 -7 -133 -65
-203 -123 -24 -19 -43 -30 -43 -24 0 13 -234 174 -313 215 -34 18 -82 40 -107
50 l-45 18 60 17 c58 17 105 37 105 46 0 8 -141 76 -210 102 -36 14 -103 33
-150 42 l-85 18 -25 46 c-66 120 -236 387 -247 387 -21 0 -47 -166 -59 -368
l-7 -123 -101 -66 c-55 -36 -125 -86 -154 -110 -29 -25 -55 -43 -58 -40 -8 7
26 155 51 226 13 36 22 67 20 69 -2 2 -28 -12 -58 -32 -63 -42 -124 -105 -167
-173 -29 -46 -30 -46 -30 -17 0 84 87 288 153 358 20 21 29 36 20 36 -34 0
-132 -44 -199 -90 -41 -27 -77 -50 -79 -50 -9 0 32 98 60 146 40 68 165 194
251 254 85 59 169 95 264 115 52 10 58 13 29 14 -32 1 -38 5 -54 41 -18 39
-80 105 -120 128 -25 13 -17 21 32 33 56 13 131 11 216 -5 106 -21 144 -39
161 -78 l15 -33 -6 30 c-15 75 -87 183 -156 235 -25 19 -47 38 -47 43 0 15
165 6 254 -14z m1610 -1 c-13 -23 -37 -48 -46 -48 -4 0 -8 14 -8 30 0 27 3 30
31 30 21 0 28 -4 23 -12z m-378 -16 c30 -24 44 -55 44 -95 0 -27 -7 -40 -40
-66 -22 -18 -45 -29 -50 -26 -6 4 -8 40 -4 93 8 123 10 127 50 94z m-1720
-117 c3 -20 2 -41 -4 -48 -7 -8 -7 -18 -2 -27 9 -15 -9 -58 -33 -78 -12 -10
-16 -9 -22 5 -12 27 -22 133 -13 133 5 0 13 11 18 25 15 39 48 33 56 -10z
m364 -30 c-7 -9 -15 -13 -17 -11 -7 7 7 26 19 26 6 0 6 -6 -2 -15z m30 -25 c0
-5 -4 -10 -10 -10 -5 0 -10 5 -10 10 0 6 5 10 10 10 6 0 10 -4 10 -10z m1385
1 c3 -5 1 -12 -4 -15 -13 -8 -42 4 -35 15 7 12 31 12 39 0z m140 -21 c-4 -6
-22 -34 -41 -63 -19 -28 -34 -57 -34 -64 0 -7 -2 -13 -4 -13 -4 0 -126 118
-126 122 0 2 33 4 73 5 39 1 83 6 97 12 33 13 43 13 35 1z m735 -22 l0 -32
-30 29 c-16 16 -30 30 -30 32 0 2 14 3 30 3 27 0 30 -3 30 -32z m-900 -58 l72
-69 -8 -53 c-5 -29 -9 -106 -8 -170 l1 -118 -53 0 c-54 0 -179 -33 -189 -50
-11 -18 -45 -10 -56 13 -9 20 -6 34 19 83 16 32 43 97 60 144 25 73 38 122 68
268 2 12 8 22 13 22 4 0 41 -31 81 -70z m-145 -77 c-18 -98 -36 -134 -94 -180
-69 -55 -151 -99 -151 -81 0 27 -21 88 -36 102 -8 8 -22 13 -32 10 -9 -3 33
19 93 49 61 31 134 74 164 96 30 23 57 41 59 41 2 0 1 -17 -3 -37z m-1465 -13
c0 -5 -9 -10 -21 -10 -11 0 -17 5 -14 10 3 6 13 10 21 10 8 0 14 -4 14 -10z
m1038 -127 c-7 -16 -20 -40 -30 -55 -10 -14 -18 -29 -18 -32 0 -4 -7 -18 -17
-32 l-16 -25 -14 38 -13 38 53 47 c60 55 71 59 55 21z m76 -14 c22 -17 25 -24
14 -36 -17 -21 -129 -96 -134 -90 -8 7 70 147 82 147 6 0 23 -9 38 -21z m261
-121 c-20 -40 -45 -82 -56 -93 -19 -19 -19 -19 -19 32 0 29 -5 55 -10 58 -6 3
18 25 52 48 35 23 64 39 66 35 2 -4 -13 -40 -33 -80z m-125 -23 c-24 -26 -40
-32 -40 -15 0 8 45 38 59 40 3 0 -6 -11 -19 -25z m514 -71 c98 -20 118 -29
183 -88 51 -46 135 -179 186 -296 14 -30 47 -95 75 -143 l51 -88 -39 31 c-22
17 -49 43 -61 58 -11 15 -37 45 -58 67 -20 22 -52 59 -71 83 -61 77 -62 45 -3
-91 48 -109 92 -180 163 -265 34 -40 60 -75 59 -76 -10 -8 -156 -26 -211 -26
-56 0 -69 4 -115 35 -111 75 -199 186 -237 298 -3 9 -9 17 -13 17 -4 0 -27
-35 -51 -76 -25 -44 -48 -74 -55 -71 -7 3 -37 10 -67 16 -45 9 -58 17 -68 39
-20 45 -146 112 -212 112 l-30 0 45 56 c57 70 101 156 120 235 7 34 19 67 24
72 15 15 14 30 -1 21 -7 -4 -8 -3 -4 5 9 15 99 60 151 77 56 18 144 17 239 -2z
m-3813 -64 c80 -44 76 -273 -7 -347 -30 -28 -90 -31 -135 -7 -87 44 -78 262
13 339 32 27 93 34 129 15z m2340 -57 c9 -2 35 -40 58 -84 23 -43 47 -79 53
-79 5 0 7 7 4 16 -6 15 0 16 43 11 94 -11 359 -116 346 -137 -3 -5 -41 -17
-85 -27 -44 -10 -80 -21 -80 -26 0 -4 15 -13 33 -19 70 -24 220 -108 327 -184
l113 -79 -74 -18 c-124 -31 -384 -19 -491 22 -20 7 -28 7 -31 -3 -7 -18 31
-71 66 -91 16 -10 56 -54 89 -99 58 -80 59 -81 34 -84 -50 -6 -253 41 -319 75
l-28 14 27 21 c71 56 71 195 -1 298 -34 49 -124 97 -198 106 -66 8 -63 15 -71
-146 -6 -106 -14 -150 -42 -228 l-16 -42 -28 20 c-35 25 -39 25 -65 0 l-22
-21 -7 58 c-9 79 -45 232 -63 267 -14 28 -13 31 31 96 60 87 78 103 134 115
l47 10 -3 89 c-3 81 10 170 27 181 4 2 5 -52 3 -121 l-4 -124 90 0 c50 0 93 4
96 8 3 5 -22 66 -55 136 -32 70 -59 129 -59 132 0 2 24 -10 53 -27 28 -17 59
-33 68 -36z m-1411 -4 c0 -22 -13 -44 -47 -80 -43 -46 -49 -49 -58 -33 -5 10
-23 32 -40 48 -16 16 -25 31 -19 33 6 2 42 18 80 37 38 18 72 31 77 29 4 -2 7
-18 7 -34z m1333 -71 c26 -57 47 -106 47 -110 0 -5 -31 -8 -70 -8 l-70 0 0 84
c0 90 11 136 33 136 7 0 34 -46 60 -102z m-2665 -154 c27 -5 31 -12 45 -68 26
-102 27 -116 5 -127 -11 -6 -44 -19 -74 -29 l-55 -19 -29 40 -28 40 20 46 c11
25 23 72 25 104 l6 58 28 -19 c15 -11 41 -23 57 -26z m4626 -209 c61 -60 152
-139 218 -187 14 -10 19 -34 23 -118 10 -185 56 -497 91 -618 21 -73 12 -128
-26 -147 -41 -21 -44 -20 -68 30 -24 50 -36 55 -61 24 -17 -21 -17 -21 -43 16
l-26 37 -18 -31 c-21 -36 -29 -38 -44 -11 -15 29 -8 36 62 61 l61 23 -6 140
c-5 121 -10 155 -37 241 -18 55 -37 119 -43 142 -11 39 -13 42 -57 47 -64 9
-139 27 -144 35 -2 3 46 6 107 6 62 0 124 3 140 8 l27 7 -73 73 c-40 39 -90
99 -112 132 -43 65 -135 242 -135 259 0 6 22 -14 47 -44 26 -30 79 -87 117
-125z m-1927 34 c71 -27 136 -88 152 -144 15 -56 14 -141 -3 -174 -8 -15 -26
-36 -40 -45 -15 -9 -26 -21 -26 -27 0 -6 28 -23 62 -38 l62 -29 -44 -7 c-24
-4 -63 -8 -87 -9 -36 -2 -51 -9 -91 -47 -129 -121 -116 -114 -186 -111 -47 2
-66 -1 -76 -12 -7 -9 -18 -16 -24 -16 -15 1 -47 29 -69 60 -24 35 -21 47 6 23
58 -54 91 -52 131 5 51 73 24 90 -84 52 -30 -10 -56 -17 -58 -15 -8 8 50 121
75 148 32 32 37 33 70 7 34 -27 37 -26 56 18 28 62 47 162 54 275 l6 107 28 0
c16 0 54 -10 86 -21z m-1306 -82 c-18 -18 -38 8 -21 28 12 15 14 15 23 0 6
-11 5 -21 -2 -28z m899 14 c0 -5 -9 -19 -20 -32 l-21 -24 16 33 c15 31 25 41
25 23z m1593 -25 c12 -8 48 -20 80 -27 47 -10 61 -18 73 -40 20 -39 18 -69
-11 -168 -13 -47 -52 -183 -85 -301 -34 -118 -62 -216 -64 -217 -2 -2 -8 50
-15 114 -14 142 -20 173 -31 173 -5 0 -16 -12 -24 -27 -11 -21 -15 -23 -16
-10 0 10 11 33 23 50 43 58 87 144 87 170 l0 25 -47 -14 c-51 -16 -136 -17
-165 -2 -28 14 -22 66 17 147 19 40 35 78 35 85 0 14 76 54 103 55 10 1 28 -5
40 -13z m-3243 -3 c0 -5 -18 -34 -40 -67 -46 -68 -53 -101 -17 -90 12 3 35 13
50 21 45 23 41 10 -6 -24 -52 -37 -102 -57 -117 -48 -14 9 -5 66 16 108 26 49
114 126 114 100z m1683 -58 c9 -33 18 -80 22 -105 l7 -45 -36 34 c-28 27 -36
43 -36 70 0 36 18 116 25 109 2 -1 10 -30 18 -63z m-2233 -17 c0 -2 7 -48 15
-103 10 -73 11 -113 4 -147 -11 -52 -22 -64 -59 -70 -24 -3 -25 0 -33 66 -4
38 -16 105 -27 149 -11 44 -19 81 -18 83 11 10 118 30 118 22z m3449 -85 c-18
-21 -37 -42 -40 -46 -4 -5 -28 2 -55 16 l-49 25 60 11 c33 7 71 16 85 21 14 5
27 9 29 9 3 1 -11 -16 -30 -36z m-1704 7 c-27 -12 -43 -12 -25 0 8 5 22 9 30
9 10 0 8 -3 -5 -9z m465 -50 c0 -8 11 -39 25 -69 15 -32 20 -49 11 -42 -14 12
-56 122 -56 145 0 17 20 -17 20 -34z m1030 20 c0 -6 -38 -10 -95 -10 -52 0
-95 -3 -95 -7 0 -4 14 -22 32 -40 35 -36 34 -41 -8 -48 -26 -4 -34 2 -71 50
l-43 54 113 4 c61 1 124 4 140 5 15 1 27 -2 27 -8z m1094 -80 c31 -38 49 -93
44 -142 l-3 -36 -72 54 c-69 52 -73 58 -73 94 0 21 4 50 10 65 9 25 11 25 39
11 16 -9 40 -29 55 -46z m-2924 36 c0 -3 -4 -8 -10 -11 -5 -3 -10 -1 -10 4 0
6 5 11 10 11 6 0 10 -2 10 -4z m-754 -41 c9 -14 14 -28 10 -32 -8 -9 -46 27
-46 44 0 21 18 15 36 -12z m3927 -52 c18 -21 33 -73 20 -73 -15 0 -51 29 -73
60 l-21 30 29 0 c16 0 36 -8 45 -17z m-934 -70 c2 -2 -18 -2 -45 -2 -27 1 -40
3 -29 6 11 3 24 9 29 14 6 5 16 4 25 -3 9 -7 18 -14 20 -15z m-3277 -54 c129
-71 236 -135 260 -156 15 -13 14 -19 -20 -73 -20 -33 -39 -59 -42 -59 -3 -1
-14 27 -24 60 -21 67 -58 119 -86 119 -42 0 -120 -105 -120 -163 0 -40 -26 -7
-39 49 -7 32 -20 75 -29 94 -15 34 -30 190 -19 190 4 0 57 -28 119 -61z m2298
47 c0 -2 -17 -14 -37 -26 l-38 -22 24 26 c21 22 51 35 51 22z m-2714 -83 l-25
-48 -1 52 c0 46 2 52 23 55 31 4 32 -4 3 -59z m3632 52 c2 -2 -6 -36 -18 -77
-12 -40 -24 -81 -26 -90 -3 -11 -15 -18 -30 -18 -14 0 -35 -5 -46 -11 -35 -19
-44 3 -25 64 9 29 20 75 23 101 l7 48 56 -7 c31 -4 57 -8 59 -10z m-3495 -72
c4 -20 -5 -51 -30 -103 -48 -101 -47 -100 -88 -86 -19 7 -38 15 -41 19 -13 13
121 197 144 197 5 0 12 -12 15 -27z m2537 -12 c0 -48 -15 -74 -69 -119 -51
-43 -51 -43 -76 -25 -13 10 -24 20 -25 23 0 3 31 38 68 78 74 79 102 90 102
43z m1144 -268 c3 -10 -3 -70 -14 -133 -11 -63 -20 -118 -20 -122 0 -3 -18
-29 -39 -56 -29 -37 -52 -54 -87 -66 -26 -9 -48 -15 -49 -13 -1 1 -12 19 -24
40 -26 43 -45 46 -79 15 l-24 -23 -29 32 c-26 30 -31 32 -54 21 -18 -8 -29 -8
-36 -1 -21 21 93 53 191 53 70 0 88 3 84 13 -3 8 0 27 7 43 19 51 39 135 59
250 19 110 23 124 56 199 l18 40 17 -137 c9 -75 20 -145 23 -155z m-1330 228
c9 -15 -45 -32 -80 -25 -33 6 -41 14 -27 27 9 10 101 8 107 -2z m-1941 -90
c44 -87 39 -109 -40 -180 -37 -34 -71 -61 -75 -61 -19 0 -30 121 -17 182 11
51 63 120 88 116 9 -2 28 -27 44 -57z m2625 -104 c3 -36 0 -63 -7 -70 -8 -8
-11 1 -11 34 0 24 -7 66 -15 93 -21 68 -19 77 7 36 13 -22 23 -57 26 -93z
m402 91 c0 -16 -23 -82 -30 -88 -3 -2 -15 -1 -28 2 -19 5 -22 11 -16 35 4 15
11 36 16 46 10 19 58 24 58 5z m-1040 -27 c0 -4 -23 -25 -52 -45 -35 -24 -54
-32 -59 -24 -21 33 56 107 92 87 11 -5 19 -13 19 -18z"/>
<path d="M3502 6952 c-36 -31 -40 -42 -14 -42 17 0 72 48 72 63 0 15 -26 5
-58 -21z"/>
<path d="M6335 6646 c-40 -18 -80 -62 -100 -109 -18 -43 -7 -110 21 -121 28
-11 84 -6 114 9 48 25 78 104 66 170 -12 61 -43 77 -101 51z m65 -25 c0 -31
-37 -104 -67 -132 -34 -32 -72 -53 -81 -44 -13 13 -4 85 15 117 36 62 133 105
133 59z"/>
<path d="M5737 6756 c-8 -20 16 -39 30 -25 14 14 6 39 -12 39 -7 0 -15 -6 -18
-14z"/>
<path d="M5763 6624 c-7 -19 11 -39 26 -30 16 10 13 33 -4 40 -9 3 -18 -1 -22
-10z"/>
<path d="M5163 6504 c-13 -14 -23 -29 -23 -35 0 -19 55 -58 83 -59 22 0 27 4
27 24 0 31 -18 78 -33 88 -19 12 -30 8 -54 -18z m71 -30 c19 -50 -7 -70 -52
-38 -23 16 -23 17 -5 34 22 23 49 25 57 4z"/>
<path d="M5467 6455 c-3 -6 -1 -18 4 -26 7 -11 9 -11 9 3 0 9 8 18 18 20 14 3
13 5 -5 10 -13 3 -24 1 -26 -7z"/>
<path d="M5420 6400 c-9 -6 -10 -10 -3 -10 6 0 15 5 18 10 8 12 4 12 -15 0z"/>
<path d="M5305 6370 c3 -5 8 -10 11 -10 2 0 4 5 4 10 0 6 -5 10 -11 10 -5 0
-7 -4 -4 -10z"/>
<path d="M5355 6370 c3 -5 8 -10 11 -10 2 0 4 5 4 10 0 6 -5 10 -11 10 -5 0
-7 -4 -4 -10z"/>
<path d="M5426 6355 c-11 -8 -15 -15 -9 -15 6 0 16 7 23 15 16 19 11 19 -14 0z"/>
<path d="M6264 5594 c-10 -55 1 -146 24 -191 34 -66 129 -132 191 -133 23 0
24 2 18 56 -6 61 -50 162 -91 211 -26 30 -111 93 -127 93 -5 0 -11 -16 -15
-36z m109 -123 c2 -39 6 -73 9 -77 13 -12 28 7 28 36 0 16 4 31 9 34 10 6 45
-71 56 -121 6 -28 4 -33 -13 -33 -35 0 -98 56 -126 111 -19 39 -26 68 -26 112
l0 59 31 -26 c28 -24 30 -31 32 -95z"/>
<path d="M6500 5552 c0 -7 7 -27 16 -43 9 -18 14 -49 13 -75 -2 -24 0 -46 3
-50 13 -12 20 69 10 105 -13 40 -41 84 -42 63z"/>
<path d="M6672 5155 c6 -14 15 -25 20 -25 11 0 10 7 -2 31 -16 28 -32 23 -18
-6z"/>
<path d="M4364 5431 c-18 -11 -35 -25 -39 -31 -11 -17 3 -25 19 -11 24 20 36
4 36 -47 1 -26 7 -58 14 -71 l13 -23 6 23 c8 28 8 120 0 102 -6 -17 -23 -16
-23 1 0 11 20 26 36 26 2 0 11 -14 19 -31 9 -17 19 -29 21 -26 8 8 -24 64 -38
70 -7 3 0 6 15 6 41 1 29 25 -14 29 -20 1 -47 -5 -65 -17z"/>
<path d="M4041 5426 c-12 -14 -10 -16 13 -16 32 0 32 -3 4 -40 -12 -16 -19
-32 -16 -36 4 -3 12 5 19 18 22 42 50 41 48 -2 0 -10 -3 -8 -10 5 -6 14 -7 1
-4 -40 5 -77 7 -85 15 -85 9 0 20 51 20 90 0 40 9 60 26 53 25 -9 15 15 -15
36 -41 30 -84 37 -100 17z"/>
<path d="M4521 5281 c-7 -5 -11 -15 -9 -22 3 -10 8 -7 17 9 13 24 12 26 -8 13z"/>
<path d="M4233 5224 c-3 -8 -1 -20 6 -27 8 -8 11 -4 11 16 0 30 -7 35 -17 11z"/>
<path d="M4501 5224 c0 -11 3 -14 6 -6 3 7 2 16 -1 19 -3 4 -6 -2 -5 -13z"/>
<path d="M4248 5093 c7 -3 16 -2 19 1 4 3 -2 6 -13 5 -11 0 -14 -3 -6 -6z"/>
<path d="M2430 4966 c0 -3 9 -10 20 -16 11 -6 20 -8 20 -6 0 3 -9 10 -20 16
-11 6 -20 8 -20 6z"/>
<path d="M3610 4730 c0 -5 -7 -10 -15 -10 -18 0 -19 -11 -3 -45 7 -15 18 -24
27 -23 9 2 24 -9 33 -24 18 -29 42 -36 54 -16 4 6 3 8 -3 5 -5 -3 -24 23 -41
59 -28 57 -52 82 -52 54z"/>
<path d="M3592 4610 c0 -14 2 -19 5 -12 2 6 2 18 0 25 -3 6 -5 1 -5 -13z"/>
<path d="M3362 4480 c0 -14 2 -19 5 -12 2 6 2 18 0 25 -3 6 -5 1 -5 -13z"/>
<path d="M3941 4484 c0 -11 3 -14 6 -6 3 7 2 16 -1 19 -3 4 -6 -2 -5 -13z"/>
<path d="M3421 4454 c-1 -12 6 -25 15 -28 13 -5 14 -3 7 6 -6 7 -13 20 -16 28
-4 10 -6 8 -6 -6z"/>
<path d="M3255 2865 c-22 -7 -32 -13 -23 -14 9 -1 25 -4 35 -7 14 -5 15 -4 3
4 -11 9 -8 11 15 10 17 0 41 5 55 10 24 10 24 11 -10 11 -19 0 -53 -6 -75 -14z"/>
<path d="M3168 2834 c-16 -8 -28 -22 -28 -31 0 -15 2 -15 13 2 15 20 34 5 21
-17 -5 -8 -1 -8 10 1 9 8 15 23 13 32 -3 10 0 20 7 23 6 2 7 5 1 5 -5 0 -22
-7 -37 -15z m22 -14 c0 -5 -2 -10 -4 -10 -3 0 -8 5 -11 10 -3 6 -1 10 4 10 6
0 11 -4 11 -10z"/>
<path d="M3220 2830 c-8 -5 -10 -10 -5 -10 6 0 17 5 25 10 8 5 11 10 5 10 -5
0 -17 -5 -25 -10z"/>
<path d="M3412 2770 c0 -14 2 -19 5 -12 2 6 2 18 0 25 -3 6 -5 1 -5 -13z"/>
<path d="M3155 2760 c-16 -7 -17 -9 -3 -9 9 -1 20 4 23 9 7 11 7 11 -20 0z"/>
<path d="M3190 2724 c0 -18 27 -36 47 -31 14 4 14 5 -4 6 -12 0 -27 9 -32 19
-6 9 -11 12 -11 6z"/>
<path d="M3150 2705 c0 -8 9 -24 20 -35 21 -21 42 -21 120 0 l35 10 -40 -5
c-22 -3 -52 -7 -67 -10 -38 -7 -78 35 -45 48 7 3 5 6 -5 6 -10 1 -18 -6 -18
-14z"/>
<path d="M3265 2700 c-8 -13 5 -13 25 0 13 8 13 10 -2 10 -9 0 -20 -4 -23 -10z"/>
<path d="M4891 4170 c21 -57 21 -56 29 -35 17 40 12 63 -14 61 -21 -1 -23 -4
-15 -26z"/>
<path d="M4732 4135 c0 -16 2 -22 5 -12 2 9 2 23 0 30 -3 6 -5 -1 -5 -18z"/>
<path d="M5043 3473 c9 -2 23 -2 30 0 6 3 -1 5 -18 5 -16 0 -22 -2 -12 -5z"/>
<path d="M5090 3468 c9 -9 120 -57 120 -53 0 6 -70 41 -100 50 -14 4 -23 5
-20 3z"/>
<path d="M5599 3343 c-13 -16 -12 -17 4 -4 16 13 21 21 13 21 -2 0 -10 -8 -17
-17z"/>
<path d="M5564 3298 l-19 -23 23 19 c12 11 22 21 22 23 0 8 -8 2 -26 -19z"/>
<path d="M5519 3243 l-24 -28 28 24 c15 14 27 26 27 28 0 8 -8 1 -31 -24z"/>
<path d="M5440 3153 l-55 -58 58 55 c53 50 62 60 54 60 -1 0 -27 -26 -57 -57z"/>
<path d="M5325 3054 l-50 -46 53 42 c45 36 59 51 50 50 -2 0 -25 -21 -53 -46z"/>
<path d="M6576 2809 c-17 -80 -16 -108 2 -72 10 19 32 114 32 138 0 8 -4 15
-8 15 -5 0 -16 -36 -26 -81z"/>
<path d="M5107 2389 c-86 -80 -114 -114 -89 -107 4 1 21 -6 39 -15 49 -26 124
-23 157 8 14 13 26 28 26 34 0 5 -13 -4 -29 -20 -21 -21 -39 -29 -63 -29 l-33
1 32 14 c39 17 55 65 42 125 -10 44 -6 60 16 60 14 0 32 -48 38 -105 3 -23 4
-20 5 10 1 44 -19 107 -34 112 -6 2 -54 -38 -107 -88z m67 15 c13 -34 6 -84
-15 -105 -17 -17 -29 -20 -57 -15 -47 7 -61 22 -40 42 12 12 20 13 36 5 25
-13 32 -6 32 34 0 45 31 73 44 39z"/>
<path d="M5166 7198 c-15 -148 -17 -188 -8 -188 5 0 12 55 16 121 7 130 3 170
-8 67z"/>
<path d="M2357 6893 c-3 -4 -4 -19 -3 -33 1 -19 8 -26 36 -32 35 -7 100 13
100 31 0 5 -21 13 -47 18 -27 6 -55 14 -64 17 -10 4 -19 4 -22 -1z"/>
<path d="M4965 6480 c-8 -14 3 -30 21 -30 8 0 14 9 14 20 0 21 -24 28 -35 10z"/>
<path d="M5000 6370 c0 -15 5 -20 18 -18 9 2 17 10 17 18 0 8 -8 16 -17 18
-13 2 -18 -3 -18 -18z"/>
<path d="M7795 4290 c-16 -7 -17 -9 -3 -9 9 -1 20 4 23 9 7 11 7 11 -20 0z"/>
<path d="M2136 3281 c-4 -7 -5 -15 -2 -18 9 -9 19 4 14 18 -4 11 -6 11 -12 0z"/>
<path d="M2055 3204 c-27 -24 -57 -44 -67 -44 -10 0 -18 -7 -18 -15 0 -16 18
-35 74 -78 21 -16 41 -39 46 -50 6 -16 9 1 9 55 1 75 0 78 -25 84 l-25 7 31
32 c50 52 31 58 -25 9z"/>
<path d="M2104 2794 c-6 -3 -9 -15 -7 -28 6 -30 -33 -74 -72 -82 -22 -4 -40 1
-69 21 -26 18 -42 23 -49 16 -14 -14 45 -68 82 -76 66 -14 141 51 141 123 0
31 -4 35 -26 26z"/>
<path d="M1670 2765 c0 -104 145 -158 186 -70 16 33 6 38 -24 15 -48 -39 -100
-21 -127 44 -18 42 -35 47 -35 11z"/>
<path d="M2013 2764 c-7 -3 -9 -12 -6 -20 3 -8 0 -14 -7 -14 -6 0 -8 -4 -5
-10 9 -15 31 -12 49 6 31 31 12 55 -31 38z"/>
<path d="M1780 2734 c-10 -12 -8 -14 14 -14 28 0 35 14 12 23 -8 3 -20 -1 -26
-9z"/>
<path d="M3580 2395 c-10 -12 -10 -18 0 -30 6 -8 9 -19 5 -25 -10 -16 -33 -12
-44 8 -10 16 -10 15 -11 -3 -1 -61 74 -89 106 -40 14 21 14 30 4 55 -16 39
-43 55 -60 35z"/>
<path d="M3205 2375 c-14 -13 -25 -33 -25 -45 0 -26 34 -60 60 -60 27 0 60 35
60 63 -1 21 -1 21 -15 3 -16 -21 -45 -15 -45 9 0 14 13 20 35 15 5 -1 1 8 -9
19 -24 27 -32 26 -61 -4z"/>
<path d="M1732 2248 c17 -79 49 -178 57 -178 7 0 31 133 31 171 0 14 -67 49
-92 49 -3 0 -2 -19 4 -42z"/>
<path d="M3639 2253 c-51 -32 -76 -106 -44 -133 19 -15 68 -5 90 20 17 18 19
17 73 -45 42 -49 59 -62 71 -56 9 5 35 12 59 16 24 4 41 9 38 12 -2 3 -28 0
-57 -6 l-52 -11 -49 47 c-42 41 -48 52 -43 77 7 40 23 56 52 56 21 0 23 3 13
14 -8 11 -18 12 -36 6 -19 -8 -26 -6 -30 5 -4 8 -11 15 -17 15 -7 0 -7 -4 1
-12 21 -21 13 -45 -19 -58 -21 -9 -33 -10 -41 -2 -6 6 -17 8 -25 5 -31 -12 8
38 40 52 18 8 25 14 17 14 -8 0 -27 -7 -41 -16z"/>
<path d="M1840 2237 c0 -33 77 -227 90 -227 4 0 19 46 35 103 15 56 30 110 32
120 5 15 -3 17 -76 17 -61 0 -81 -3 -81 -13z"/>
<path d="M3377 2209 c-10 -6 -36 -9 -57 -7 -21 2 -36 0 -34 -4 3 -5 12 -8 19
-8 8 0 21 -13 29 -29 20 -38 62 -64 91 -57 13 3 34 21 46 39 12 17 28 37 36
44 11 9 7 11 -20 11 -19 0 -44 5 -55 11 -25 13 -32 13 -55 0z m68 -55 c14 -6
14 -8 -1 -25 -20 -22 -34 -24 -59 -6 -34 26 11 49 60 31z"/>
<path d="M3841 2171 c12 -16 19 -33 16 -38 -3 -5 3 -9 13 -9 16 0 14 6 -12 38
-35 44 -49 51 -17 9z"/>
<path d="M3983 2137 c24 -36 22 -43 -15 -55 -27 -8 -29 -10 -10 -11 13 -1 32
4 43 9 18 10 18 13 4 40 -8 16 -21 32 -27 36 -7 5 -5 -4 5 -19z"/>
<path d="M3854 1956 c25 -54 32 -62 44 -50 7 8 18 14 24 14 7 0 1 11 -12 25
-13 14 -30 23 -38 20 -7 -2 -11 -1 -8 4 3 4 -5 18 -17 29 -21 20 -20 17 7 -42z"/>
<path d="M3620 1979 c0 -24 56 -96 89 -113 16 -9 32 -27 35 -41 4 -14 11 -25
18 -25 11 0 37 -29 38 -42 0 -5 -7 -8 -15 -8 -8 0 -15 5 -15 12 0 6 -3 9 -6 5
-3 -3 0 -37 6 -75 7 -38 10 -85 6 -104 -9 -48 -55 -115 -88 -129 -28 -12 -41
-33 -13 -23 9 4 15 0 15 -7 0 -8 5 -6 12 6 6 11 27 39 46 63 28 34 36 54 40
97 4 50 6 53 34 59 17 3 52 6 79 6 61 0 92 12 155 61 28 21 65 44 82 50 22 8
33 19 37 41 4 16 3 34 -1 38 -5 5 -53 10 -107 12 l-98 3 6 -26 c7 -30 -23 -63
-49 -53 -19 7 -21 25 -3 44 6 8 1 6 -13 -5 -13 -11 -30 -26 -35 -33 -9 -11
-17 -6 -40 24 -20 26 -24 36 -12 31 9 -3 17 -2 17 3 0 14 -38 12 -42 -2 -3 -9
-15 -8 -45 6 -46 20 -92 65 -116 111 -9 17 -16 23 -17 14z m520 -169 c0 -5 -4
-10 -10 -10 -5 0 -10 5 -10 10 0 6 5 10 10 10 6 0 10 -4 10 -10z"/>
<path d="M4106 1907 c3 -10 9 -15 12 -12 3 3 0 11 -7 18 -10 9 -11 8 -5 -6z"/>
<path d="M3880 1860 c-9 -6 -10 -10 -3 -10 6 0 15 5 18 10 8 12 4 12 -15 0z"/>
<path d="M2087 1648 c6 -7 13 -20 16 -28 4 -10 6 -8 6 6 1 12 -6 25 -15 28
-13 5 -14 3 -7 -6z"/>
<path d="M3135 1616 c0 -16 5 -22 16 -19 9 3 20 0 23 -6 4 -6 17 -11 29 -11
19 1 18 3 -8 17 -16 8 -37 21 -45 29 -13 11 -15 9 -15 -10z"/>
<path d="M2250 1596 c0 -8 7 -17 16 -20 23 -9 24 -4 2 17 -14 13 -18 14 -18 3z"/>
<path d="M3340 1581 c0 -8 52 -22 58 -16 2 1 -11 7 -27 13 -17 6 -31 7 -31 3z"/>
<path d="M3090 1565 c-7 -8 -9 -15 -4 -15 5 0 0 -7 -10 -15 -11 -8 -17 -18
-13 -21 3 -3 18 6 34 20 22 21 23 25 8 20 -18 -7 -18 -6 -6 9 7 9 11 17 8 17
-2 0 -10 -7 -17 -15z"/>
<path d="M3244 1571 c5 -8 56 -3 56 5 0 2 -14 4 -31 4 -16 0 -28 -4 -25 -9z"/>
<path d="M3100 1515 c-13 -14 -19 -25 -14 -25 8 1 50 50 41 50 -2 0 -14 -11
-27 -25z"/>
<path d="M3482 1504 c10 -10 20 -16 22 -13 3 3 -5 11 -17 18 -21 13 -21 12 -5
-5z"/>
<path d="M2081 1493 c-1 -6 -4 -20 -7 -30 -5 -17 -5 -17 6 0 6 10 9 23 6 30
-3 9 -5 9 -5 0z"/>
<path d="M4508 1493 c7 -3 16 -2 19 1 4 3 -2 6 -13 5 -11 0 -14 -3 -6 -6z"/>
<path d="M3561 1458 c14 -14 38 -24 59 -25 19 -1 28 1 20 4 -8 3 -35 14 -59
24 l-45 20 25 -23z"/>
<path d="M3588 1356 c-3 -14 -1 -31 3 -38 6 -8 9 1 9 25 0 42 -6 48 -12 13z"/>
<path d="M3630 1379 c0 -2 -4 -19 -9 -37 -5 -17 -6 -32 -1 -32 8 0 21 62 14
69 -2 2 -4 2 -4 0z"/>
</g>
</svg>
